<mxfile host="app.diagrams.net" modified="2022-03-08T08:34:44.360Z" agent="5.0 (Macintosh; Intel Mac OS X 10_15_7) AppleWebKit/537.36 (KHTML, like Gecko) Chrome/97.0.4692.99 Safari/537.36" etag="LiunfSA-lZjNM9hP3bWZ" version="15.0.3" type="github">
  <diagram id="C5RBs43oDa-KdzZeNtuy" name="Page-1">
    <mxGraphModel dx="2066" dy="1097" grid="1" gridSize="10" guides="1" tooltips="1" connect="1" arrows="1" fold="1" page="1" pageScale="1" pageWidth="1169" pageHeight="1654" background="none" math="0" shadow="0">
      <root>
        <mxCell id="WIyWlLk6GJQsqaUBKTNV-0" />
        <mxCell id="WIyWlLk6GJQsqaUBKTNV-1" parent="WIyWlLk6GJQsqaUBKTNV-0" />
        <mxCell id="WIyWlLk6GJQsqaUBKTNV-2" value="" style="rounded=0;html=1;jettySize=auto;orthogonalLoop=1;fontSize=11;endArrow=block;endFill=0;endSize=8;strokeWidth=1;shadow=0;labelBackgroundColor=none;edgeStyle=orthogonalEdgeStyle;verticalAlign=middle;align=center;" parent="WIyWlLk6GJQsqaUBKTNV-1" source="WIyWlLk6GJQsqaUBKTNV-3" target="WIyWlLk6GJQsqaUBKTNV-6" edge="1">
          <mxGeometry relative="1" as="geometry" />
        </mxCell>
        <mxCell id="WIyWlLk6GJQsqaUBKTNV-4" value="Yes" style="rounded=0;html=1;jettySize=auto;orthogonalLoop=1;fontSize=11;endArrow=block;endFill=0;endSize=8;strokeWidth=1;shadow=0;labelBackgroundColor=none;edgeStyle=orthogonalEdgeStyle;verticalAlign=middle;align=center;" parent="WIyWlLk6GJQsqaUBKTNV-1" source="WIyWlLk6GJQsqaUBKTNV-6" edge="1">
          <mxGeometry y="20" relative="1" as="geometry">
            <mxPoint as="offset" />
            <mxPoint x="434" y="430" as="targetPoint" />
          </mxGeometry>
        </mxCell>
        <mxCell id="WIyWlLk6GJQsqaUBKTNV-6" value="评估价值" style="rhombus;whiteSpace=wrap;html=1;shadow=0;fontFamily=Helvetica;fontSize=12;align=center;strokeWidth=1;spacing=6;spacingTop=-4;verticalAlign=middle;" parent="WIyWlLk6GJQsqaUBKTNV-1" vertex="1">
          <mxGeometry x="384" y="285" width="100" height="80" as="geometry" />
        </mxCell>
        <mxCell id="b5Mt_fPdI5iNJ6w0Xpzc-0" value="挖掘调研" style="swimlane;horizontal=0;fillColor=#dae8fc;strokeColor=#6c8ebf;verticalAlign=middle;align=center;" parent="WIyWlLk6GJQsqaUBKTNV-1" vertex="1">
          <mxGeometry x="164" y="170" width="600" height="220" as="geometry" />
        </mxCell>
        <mxCell id="WIyWlLk6GJQsqaUBKTNV-3" value="确定漏洞挖掘产品" style="rounded=1;whiteSpace=wrap;html=1;fontSize=12;glass=0;strokeWidth=1;shadow=0;verticalAlign=middle;align=center;" parent="b5Mt_fPdI5iNJ6w0Xpzc-0" vertex="1">
          <mxGeometry x="210" y="20" width="120" height="40" as="geometry" />
        </mxCell>
        <mxCell id="b5Mt_fPdI5iNJ6w0Xpzc-10" value="iput:源码、运行环境、漏洞需求" style="shape=document;whiteSpace=wrap;html=1;boundedLbl=1;verticalAlign=middle;align=center;" parent="b5Mt_fPdI5iNJ6w0Xpzc-0" vertex="1">
          <mxGeometry x="140" y="60" width="110" height="50" as="geometry" />
        </mxCell>
        <mxCell id="b5Mt_fPdI5iNJ6w0Xpzc-2" value="研究进行" style="swimlane;horizontal=0;fillColor=#fff2cc;strokeColor=#d6b656;verticalAlign=middle;align=center;" parent="WIyWlLk6GJQsqaUBKTNV-1" vertex="1">
          <mxGeometry x="164" y="390" width="602" height="370" as="geometry" />
        </mxCell>
        <mxCell id="b5Mt_fPdI5iNJ6w0Xpzc-9" value="" style="edgeStyle=orthogonalEdgeStyle;rounded=0;orthogonalLoop=1;jettySize=auto;html=1;verticalAlign=middle;align=center;" parent="b5Mt_fPdI5iNJ6w0Xpzc-2" source="b5Mt_fPdI5iNJ6w0Xpzc-3" target="b5Mt_fPdI5iNJ6w0Xpzc-8" edge="1">
          <mxGeometry relative="1" as="geometry" />
        </mxCell>
        <mxCell id="b5Mt_fPdI5iNJ6w0Xpzc-3" value="梳理产品历史漏洞" style="rounded=1;whiteSpace=wrap;html=1;fontSize=12;glass=0;strokeWidth=1;shadow=0;verticalAlign=middle;align=center;" parent="b5Mt_fPdI5iNJ6w0Xpzc-2" vertex="1">
          <mxGeometry x="210" y="30" width="120" height="40" as="geometry" />
        </mxCell>
        <mxCell id="b5Mt_fPdI5iNJ6w0Xpzc-12" value="" style="edgeStyle=orthogonalEdgeStyle;rounded=0;orthogonalLoop=1;jettySize=auto;html=1;verticalAlign=middle;align=center;" parent="b5Mt_fPdI5iNJ6w0Xpzc-2" source="b5Mt_fPdI5iNJ6w0Xpzc-8" target="b5Mt_fPdI5iNJ6w0Xpzc-11" edge="1">
          <mxGeometry relative="1" as="geometry" />
        </mxCell>
        <mxCell id="b5Mt_fPdI5iNJ6w0Xpzc-8" value="搭建漏洞挖掘环境" style="rounded=1;whiteSpace=wrap;html=1;fontSize=12;glass=0;strokeWidth=1;shadow=0;verticalAlign=middle;align=center;" parent="b5Mt_fPdI5iNJ6w0Xpzc-2" vertex="1">
          <mxGeometry x="210" y="100" width="120" height="40" as="geometry" />
        </mxCell>
        <mxCell id="w0ziFHajpQSt5rMZ98JG-4" value="" style="edgeStyle=orthogonalEdgeStyle;rounded=0;orthogonalLoop=1;jettySize=auto;html=1;" parent="b5Mt_fPdI5iNJ6w0Xpzc-2" source="b5Mt_fPdI5iNJ6w0Xpzc-11" target="b5Mt_fPdI5iNJ6w0Xpzc-16" edge="1">
          <mxGeometry relative="1" as="geometry" />
        </mxCell>
        <mxCell id="b5Mt_fPdI5iNJ6w0Xpzc-11" value="漏洞挖掘" style="rounded=1;whiteSpace=wrap;html=1;fontSize=12;glass=0;strokeWidth=1;shadow=0;verticalAlign=middle;align=center;" parent="b5Mt_fPdI5iNJ6w0Xpzc-2" vertex="1">
          <mxGeometry x="210" y="165" width="120" height="40" as="geometry" />
        </mxCell>
        <mxCell id="w0ziFHajpQSt5rMZ98JG-7" value="否" style="edgeStyle=orthogonalEdgeStyle;rounded=0;orthogonalLoop=1;jettySize=auto;html=1;entryX=0;entryY=0.5;entryDx=0;entryDy=0;" parent="b5Mt_fPdI5iNJ6w0Xpzc-2" source="b5Mt_fPdI5iNJ6w0Xpzc-16" target="b5Mt_fPdI5iNJ6w0Xpzc-11" edge="1">
          <mxGeometry relative="1" as="geometry">
            <Array as="points">
              <mxPoint x="190" y="300" />
              <mxPoint x="190" y="185" />
            </Array>
          </mxGeometry>
        </mxCell>
        <mxCell id="b5Mt_fPdI5iNJ6w0Xpzc-16" value="是否产出" style="rhombus;whiteSpace=wrap;html=1;shadow=0;fontFamily=Helvetica;fontSize=12;align=center;strokeWidth=1;spacing=6;spacingTop=-4;verticalAlign=middle;" parent="b5Mt_fPdI5iNJ6w0Xpzc-2" vertex="1">
          <mxGeometry x="220" y="260" width="100" height="80" as="geometry" />
        </mxCell>
        <mxCell id="w0ziFHajpQSt5rMZ98JG-0" value="out:历史漏洞、攻击面梳理落地文库&lt;br&gt;" style="shape=document;whiteSpace=wrap;html=1;boundedLbl=1;verticalAlign=middle;align=center;" parent="b5Mt_fPdI5iNJ6w0Xpzc-2" vertex="1">
          <mxGeometry x="331" y="31" width="150" height="40" as="geometry" />
        </mxCell>
        <mxCell id="w0ziFHajpQSt5rMZ98JG-1" value="out:checklist，关键函数、功能、攻击面" style="shape=document;whiteSpace=wrap;html=1;boundedLbl=1;verticalAlign=middle;align=center;" parent="b5Mt_fPdI5iNJ6w0Xpzc-2" vertex="1">
          <mxGeometry x="330" y="165" width="120" height="40" as="geometry" />
        </mxCell>
        <mxCell id="MgCEsrjEWP3Si-s4gdg2-0" value="out:环境搭建步骤、环境快照、源码" style="shape=document;whiteSpace=wrap;html=1;boundedLbl=1;verticalAlign=middle;align=center;" vertex="1" parent="b5Mt_fPdI5iNJ6w0Xpzc-2">
          <mxGeometry x="331" y="100" width="150" height="40" as="geometry" />
        </mxCell>
        <mxCell id="b5Mt_fPdI5iNJ6w0Xpzc-35" value="赋能" style="swimlane;horizontal=0;align=center;verticalAlign=middle;fillColor=#e1d5e7;strokeColor=#9673a6;" parent="WIyWlLk6GJQsqaUBKTNV-1" vertex="1">
          <mxGeometry x="164" y="920" width="602" height="210" as="geometry" />
        </mxCell>
        <mxCell id="w0ziFHajpQSt5rMZ98JG-18" value="是" style="edgeStyle=orthogonalEdgeStyle;rounded=0;orthogonalLoop=1;jettySize=auto;html=1;" parent="b5Mt_fPdI5iNJ6w0Xpzc-35" source="w0ziFHajpQSt5rMZ98JG-13" target="w0ziFHajpQSt5rMZ98JG-15" edge="1">
          <mxGeometry relative="1" as="geometry" />
        </mxCell>
        <mxCell id="w0ziFHajpQSt5rMZ98JG-13" value="赋能支持" style="rhombus;whiteSpace=wrap;html=1;shadow=0;fontFamily=Helvetica;fontSize=12;align=center;strokeWidth=1;spacing=6;spacingTop=-4;verticalAlign=middle;" parent="b5Mt_fPdI5iNJ6w0Xpzc-35" vertex="1">
          <mxGeometry x="220" y="16" width="100" height="80" as="geometry" />
        </mxCell>
        <mxCell id="w0ziFHajpQSt5rMZ98JG-15" value="赋能产品、区域红队、其他团队" style="rounded=1;whiteSpace=wrap;html=1;fontSize=12;glass=0;strokeWidth=1;shadow=0;verticalAlign=middle;align=center;" parent="b5Mt_fPdI5iNJ6w0Xpzc-35" vertex="1">
          <mxGeometry x="210" y="146" width="120" height="40" as="geometry" />
        </mxCell>
        <mxCell id="CzGfe24st4bRN5wf_aPC-0" value="out:协助攻击、POC提供" style="shape=document;whiteSpace=wrap;html=1;boundedLbl=1;" parent="b5Mt_fPdI5iNJ6w0Xpzc-35" vertex="1">
          <mxGeometry x="330" y="145.5" width="154" height="43" as="geometry" />
        </mxCell>
        <mxCell id="MgCEsrjEWP3Si-s4gdg2-2" value="iput:漏洞环境、ss代理" style="shape=document;whiteSpace=wrap;html=1;boundedLbl=1;" vertex="1" parent="b5Mt_fPdI5iNJ6w0Xpzc-35">
          <mxGeometry x="114" y="145.5" width="96" height="46" as="geometry" />
        </mxCell>
        <mxCell id="w0ziFHajpQSt5rMZ98JG-5" value="" style="edgeStyle=orthogonalEdgeStyle;rounded=0;orthogonalLoop=1;jettySize=auto;html=1;" parent="WIyWlLk6GJQsqaUBKTNV-1" source="b5Mt_fPdI5iNJ6w0Xpzc-16" target="b5Mt_fPdI5iNJ6w0Xpzc-19" edge="1">
          <mxGeometry relative="1" as="geometry" />
        </mxCell>
        <mxCell id="w0ziFHajpQSt5rMZ98JG-6" value="是" style="edgeStyle=orthogonalEdgeStyle;rounded=0;orthogonalLoop=1;jettySize=auto;html=1;" parent="WIyWlLk6GJQsqaUBKTNV-1" source="b5Mt_fPdI5iNJ6w0Xpzc-16" target="b5Mt_fPdI5iNJ6w0Xpzc-19" edge="1">
          <mxGeometry relative="1" as="geometry" />
        </mxCell>
        <mxCell id="b5Mt_fPdI5iNJ6w0Xpzc-31" value="产出沉淀" style="swimlane;horizontal=0;align=center;verticalAlign=middle;fillColor=#d5e8d4;strokeColor=#82b366;" parent="WIyWlLk6GJQsqaUBKTNV-1" vertex="1">
          <mxGeometry x="164" y="760" width="602" height="160" as="geometry" />
        </mxCell>
        <mxCell id="b5Mt_fPdI5iNJ6w0Xpzc-19" value="成果输出" style="rounded=1;whiteSpace=wrap;html=1;fontSize=12;glass=0;strokeWidth=1;shadow=0;verticalAlign=middle;align=center;" parent="b5Mt_fPdI5iNJ6w0Xpzc-31" vertex="1">
          <mxGeometry x="210" y="55" width="120" height="40" as="geometry" />
        </mxCell>
        <mxCell id="w0ziFHajpQSt5rMZ98JG-11" value="out:工具化漏洞利用脚本、检测POC" style="shape=document;whiteSpace=wrap;html=1;boundedLbl=1;" parent="b5Mt_fPdI5iNJ6w0Xpzc-31" vertex="1">
          <mxGeometry x="330" y="55" width="154" height="43" as="geometry" />
        </mxCell>
        <mxCell id="w0ziFHajpQSt5rMZ98JG-14" value="" style="edgeStyle=orthogonalEdgeStyle;rounded=0;orthogonalLoop=1;jettySize=auto;html=1;" parent="WIyWlLk6GJQsqaUBKTNV-1" source="b5Mt_fPdI5iNJ6w0Xpzc-19" target="w0ziFHajpQSt5rMZ98JG-13" edge="1">
          <mxGeometry relative="1" as="geometry" />
        </mxCell>
      </root>
    </mxGraphModel>
  </diagram>
</mxfile>
